<svg xmlns="http://www.w3.org/2000/svg" width="2000" height="1240" viewBox="0 0 1000 620"><rect width="1000" height="620" fill="#3595a6"/><polygon points="42,0 49,38 44,62 45,88 45,112 34,139 24,165 18,204 11,248 12,290 11,335 12,367 23,406 47,445 79,477 119,518 163,552 177,584 211,620 485,620 520,608 572,599 608,582 645,570 686,566 710,559 740,551 781,548 817,541 845,529 877,534 900,558 913,587 932,603 949,595 957,576 948,545 925,506 909,469 919,438 943,408 956,380 958,350 969,324 967,291 974,271 967,241 960,208 964,176 982,143 995,112 998,85 995,0" fill="#e6d5a5" stroke="#b5915c" stroke-width="2"/><polygon points="594,137 611,126 640,129 661,124 685,130 705,140 713,153 694,158 675,154 651,162 629,154 610,155" fill="#3595a6"/><polygon points="712,174 729,167 739,181 733,201 726,216 728,229 716,235 704,221 702,201" fill="#3595a6"/><polygon points="754,157 768,147 787,160 790,175 780,186 775,204 760,205 751,186" fill="#3595a6"/><polygon points="762,218 783,208 809,203 820,210 801,218 780,223" fill="#3595a6"/><polygon points="811,179 832,165 853,169 855,178 837,185 820,187" fill="#3595a6"/><path d="M153 0 C153 75 165 120 170 180 S200 270 229 344 S270 444 303 493 S320 568 355 620" fill="none" stroke="#a7956b" stroke-width="43" opacity=".6"/><path d="M845 173 C854 230 858 280 835 328 S815 410 839 458" fill="none" stroke="#9f966c" stroke-width="22" opacity=".5"/><circle cx="74.07407407407408" cy="62.52100840336134" r="4" fill="#e53a35" stroke="white" stroke-width="1"/><text x="74.07407407407408" y="55.52100840336134" font-size="7" fill="#602f24" text-anchor="middle" font-family="/System/Library/Fonts/Supplemental/Arial.ttf">Vancouver</text><circle cx="211.64021164021162" cy="44.806722689075634" r="4" fill="#e53a35" stroke="white" stroke-width="1"/><text x="211.64021164021162" y="37.806722689075634" font-size="7" fill="#602f24" text-anchor="middle" font-family="/System/Library/Fonts/Supplemental/Arial.ttf">Calgary</text><circle cx="449.7354497354497" cy="56.26890756302521" r="4" fill="#e53a35" stroke="white" stroke-width="1"/><text x="449.7354497354497" y="49.26890756302521" font-size="7" fill="#602f24" text-anchor="middle" font-family="/System/Library/Fonts/Supplemental/Arial.ttf">Winnipeg</text><circle cx="703.7037037037037" cy="108.36974789915966" r="4" fill="#e53a35" stroke="white" stroke-width="1"/><text x="703.7037037037037" y="101.36974789915966" font-size="7" fill="#602f24" text-anchor="middle" font-family="/System/Library/Fonts/Supplemental/Arial.ttf">Sault Ste. Marie</text><circle cx="905.8201058201058" cy="39.59663865546218" r="4" fill="#e53a35" stroke="white" stroke-width="1"/><text x="905.8201058201058" y="32.59663865546218" font-size="7" fill="#602f24" text-anchor="middle" font-family="/System/Library/Fonts/Supplemental/Arial.ttf">Montréal</text><circle cx="980.952380952381" cy="100.03361344537815" r="4" fill="#e53a35" stroke="white" stroke-width="1"/><text x="960" y="93.03361344537815" font-size="7" fill="#602f24" text-anchor="middle" font-family="/System/Library/Fonts/Supplemental/Arial.ttf">Boston</text><circle cx="68.78306878306879" cy="119.83193277310924" r="4" fill="#e53a35" stroke="white" stroke-width="1"/><text x="68.78306878306879" y="112.83193277310924" font-size="7" fill="#602f24" text-anchor="middle" font-family="/System/Library/Fonts/Supplemental/Arial.ttf">Seattle</text><circle cx="317.46031746031747" cy="183.39495798319328" r="4" fill="#e53a35" stroke="white" stroke-width="1"/><text x="317.46031746031747" y="176.39495798319328" font-size="7" fill="#602f24" text-anchor="middle" font-family="/System/Library/Fonts/Supplemental/Arial.ttf">Helena</text><circle cx="568.2539682539682" cy="176.10084033613444" r="4" fill="#e53a35" stroke="white" stroke-width="1"/><text x="568.2539682539682" y="169.10084033613444" font-size="7" fill="#602f24" text-anchor="middle" font-family="/System/Library/Fonts/Supplemental/Arial.ttf">Duluth</text><circle cx="819.047619047619" cy="129.21008403361344" r="4" fill="#e53a35" stroke="white" stroke-width="1"/><text x="819.047619047619" y="122.21008403361344" font-size="7" fill="#602f24" text-anchor="middle" font-family="/System/Library/Fonts/Supplemental/Arial.ttf">Toronto</text><circle cx="924.8677248677249" cy="178.1848739495798" r="4" fill="#e53a35" stroke="white" stroke-width="1"/><text x="924.8677248677249" y="171.1848739495798" font-size="7" fill="#602f24" text-anchor="middle" font-family="/System/Library/Fonts/Supplemental/Arial.ttf">New York</text><circle cx="46.56084656084656" cy="172.9747899159664" r="4" fill="#e53a35" stroke="white" stroke-width="1"/><text x="46.56084656084656" y="165.9747899159664" font-size="7" fill="#602f24" text-anchor="middle" font-family="/System/Library/Fonts/Supplemental/Arial.ttf">Portland</text><circle cx="536.5079365079365" cy="273.0084033613445" r="4" fill="#e53a35" stroke="white" stroke-width="1"/><text x="536.5079365079365" y="266.0084033613445" font-size="7" fill="#602f24" text-anchor="middle" font-family="/System/Library/Fonts/Supplemental/Arial.ttf">Omaha</text><circle cx="698.4126984126983" cy="240.7058823529412" r="4" fill="#e53a35" stroke="white" stroke-width="1"/><text x="698.4126984126983" y="233.7058823529412" font-size="7" fill="#602f24" text-anchor="middle" font-family="/System/Library/Fonts/Supplemental/Arial.ttf">Chicago</text><circle cx="837.0370370370371" cy="225.07563025210084" r="4" fill="#e53a35" stroke="white" stroke-width="1"/><text x="837.0370370370371" y="218.07563025210084" font-size="7" fill="#602f24" text-anchor="middle" font-family="/System/Library/Fonts/Supplemental/Arial.ttf">Pittsburgh</text><circle cx="241.26984126984127" cy="311.56302521008405" r="4" fill="#e53a35" stroke="white" stroke-width="1"/><text x="241.26984126984127" y="304.56302521008405" font-size="7" fill="#602f24" text-anchor="middle" font-family="/System/Library/Fonts/Supplemental/Arial.ttf">Salt Lake City</text><circle cx="379.8941798941799" cy="344.9075630252101" r="4" fill="#e53a35" stroke="white" stroke-width="1"/><text x="379.8941798941799" y="337.9075630252101" font-size="7" fill="#602f24" text-anchor="middle" font-family="/System/Library/Fonts/Supplemental/Arial.ttf">Denver</text><circle cx="558.7301587301588" cy="326.1512605042017" r="4" fill="#e53a35" stroke="white" stroke-width="1"/><text x="558.7301587301588" y="319.1512605042017" font-size="7" fill="#602f24" text-anchor="middle" font-family="/System/Library/Fonts/Supplemental/Arial.ttf">Kansas City</text><circle cx="650.7936507936508" cy="327.1932773109244" r="4" fill="#e53a35" stroke="white" stroke-width="1"/><text x="650.7936507936508" y="320.1932773109244" font-size="7" fill="#602f24" text-anchor="middle" font-family="/System/Library/Fonts/Supplemental/Arial.ttf">Saint Louis</text><circle cx="935.4497354497354" cy="273.0084033613445" r="4" fill="#e53a35" stroke="white" stroke-width="1"/><text x="935.4497354497354" y="266.0084033613445" font-size="7" fill="#602f24" text-anchor="middle" font-family="/System/Library/Fonts/Supplemental/Arial.ttf">Washington</text><circle cx="32.804232804232804" cy="377.21008403361344" r="4" fill="#e53a35" stroke="white" stroke-width="1"/><text x="45" y="370.21008403361344" font-size="7" fill="#602f24" text-anchor="middle" font-family="/System/Library/Fonts/Supplemental/Arial.ttf">San Francisco</text><circle cx="183.06878306878306" cy="426.1848739495798" r="4" fill="#e53a35" stroke="white" stroke-width="1"/><text x="183.06878306878306" y="419.1848739495798" font-size="7" fill="#602f24" text-anchor="middle" font-family="/System/Library/Fonts/Supplemental/Arial.ttf">Las Vegas</text><circle cx="372.48677248677245" cy="438.68907563025215" r="4" fill="#e53a35" stroke="white" stroke-width="1"/><text x="372.48677248677245" y="431.68907563025215" font-size="7" fill="#602f24" text-anchor="middle" font-family="/System/Library/Fonts/Supplemental/Arial.ttf">Santa Fe</text><circle cx="537.5661375661376" cy="415.7647058823529" r="4" fill="#e53a35" stroke="white" stroke-width="1"/><text x="537.5661375661376" y="408.7647058823529" font-size="7" fill="#602f24" text-anchor="middle" font-family="/System/Library/Fonts/Supplemental/Arial.ttf">Oklahoma City</text><circle cx="632.8042328042328" cy="418.890756302521" r="4" fill="#e53a35" stroke="white" stroke-width="1"/><text x="632.8042328042328" y="411.890756302521" font-size="7" fill="#602f24" text-anchor="middle" font-family="/System/Library/Fonts/Supplemental/Arial.ttf">Little Rock</text><circle cx="749.2063492063492" cy="366.78991596638656" r="4" fill="#e53a35" stroke="white" stroke-width="1"/><text x="749.2063492063492" y="359.78991596638656" font-size="7" fill="#602f24" text-anchor="middle" font-family="/System/Library/Fonts/Supplemental/Arial.ttf">Nashville</text><circle cx="874.0740740740741" cy="342.82352941176475" r="4" fill="#e53a35" stroke="white" stroke-width="1"/><text x="874.0740740740741" y="335.82352941176475" font-size="7" fill="#602f24" text-anchor="middle" font-family="/System/Library/Fonts/Supplemental/Arial.ttf">Raleigh</text><circle cx="903.7037037037037" cy="410.5546218487395" r="4" fill="#e53a35" stroke="white" stroke-width="1"/><text x="903.7037037037037" y="403.5546218487395" font-size="7" fill="#602f24" text-anchor="middle" font-family="/System/Library/Fonts/Supplemental/Arial.ttf">Charleston</text><circle cx="112.16931216931216" cy="488.70588235294116" r="4" fill="#e53a35" stroke="white" stroke-width="1"/><text x="112.16931216931216" y="481.70588235294116" font-size="7" fill="#602f24" text-anchor="middle" font-family="/System/Library/Fonts/Supplemental/Arial.ttf">Los Angeles</text><circle cx="242.32804232804233" cy="493.9159663865546" r="4" fill="#e53a35" stroke="white" stroke-width="1"/><text x="242.32804232804233" y="486.9159663865546" font-size="7" fill="#602f24" text-anchor="middle" font-family="/System/Library/Fonts/Supplemental/Arial.ttf">Phoenix</text><circle cx="367.1957671957672" cy="532.470588235294" r="4" fill="#e53a35" stroke="white" stroke-width="1"/><text x="367.1957671957672" y="525.470588235294" font-size="7" fill="#602f24" text-anchor="middle" font-family="/System/Library/Fonts/Supplemental/Arial.ttf">El Paso</text><circle cx="558.7301587301588" cy="508.5042016806722" r="4" fill="#e53a35" stroke="white" stroke-width="1"/><text x="558.7301587301588" y="501.5042016806722" font-size="7" fill="#602f24" text-anchor="middle" font-family="/System/Library/Fonts/Supplemental/Arial.ttf">Dallas</text><circle cx="802.1164021164021" cy="403.2605042016807" r="4" fill="#e53a35" stroke="white" stroke-width="1"/><text x="802.1164021164021" y="396.2605042016807" font-size="7" fill="#602f24" text-anchor="middle" font-family="/System/Library/Fonts/Supplemental/Arial.ttf">Atlanta</text><circle cx="700.5291005291006" cy="535.5966386554622" r="4" fill="#e53a35" stroke="white" stroke-width="1"/><text x="700.5291005291006" y="528.5966386554622" font-size="7" fill="#602f24" text-anchor="middle" font-family="/System/Library/Fonts/Supplemental/Arial.ttf">New Orleans</text><circle cx="603.1746031746031" cy="550.1848739495798" r="4" fill="#e53a35" stroke="white" stroke-width="1"/><text x="603.1746031746031" y="543.1848739495798" font-size="7" fill="#602f24" text-anchor="middle" font-family="/System/Library/Fonts/Supplemental/Arial.ttf">Houston</text><circle cx="936.5079365079365" cy="575.1932773109244" r="4" fill="#e53a35" stroke="white" stroke-width="1"/><text x="936.5079365079365" y="568.1932773109244" font-size="7" fill="#602f24" text-anchor="middle" font-family="/System/Library/Fonts/Supplemental/Arial.ttf">Miami</text></svg>